<svg width="172" height="154" viewBox="0 0 172 154" fill="none" xmlns="http://www.w3.org/2000/svg">
<path d="M172 77V128.333C172 142.878 160.82 154 146.2 154H25.8C11.18 154 0 142.878 0 128.333V77C7.74 82.9889 16.34 85.5556 25.8 85.5556H146.2C155.66 85.5556 164.26 82.9889 172 77ZM0 47.0556C2.58 35.0778 12.9 25.6667 25.8 25.6667H51.6C51.6 11.1222 62.78 0 77.4 0H94.6C109.22 0 120.4 11.1222 120.4 25.6667H146.2C159.1 25.6667 170.28 34.2222 172 47.0556C170.28 59.8889 159.1 68.4444 146.2 68.4444H25.8C12.9 68.4444 2.58 59.0333 0 47.0556ZM68.8 25.6667H103.2C103.2 20.5333 99.76 17.1111 94.6 17.1111H77.4C72.24 17.1111 68.8 20.5333 68.8 25.6667Z" fill="#008749"/>
</svg>
