<svg width="172" height="172" viewBox="0 0 172 172" fill="none" xmlns="http://www.w3.org/2000/svg">
<path d="M161.25 155.875V10.75C161.25 4.8375 156.413 0 150.5 0H137.062C138.675 3.225 139.75 6.9875 139.75 10.75V155.875H129V10.75C129 4.8375 124.162 0 118.25 0H96.75C90.8375 0 86 4.8375 86 10.75V16.125H75.25C66.1125 16.125 59.125 23.1125 59.125 32.25V48.375H53.75C44.6125 48.375 37.625 55.3625 37.625 64.5V80.625H21.5C15.5875 80.625 10.75 85.4625 10.75 91.375V155.875H0V172H172V155.875H161.25ZM86 155.875H75.25V91.375C75.25 85.4625 70.4125 80.625 64.5 80.625H48.375V64.5C48.375 61.275 50.525 59.125 53.75 59.125H86V155.875ZM86 48.375H69.875V32.25C69.875 29.025 72.025 26.875 75.25 26.875H86V48.375Z" fill="#008749"/>
</svg>
