<svg width="172" height="172" viewBox="0 0 172 172" fill="none" xmlns="http://www.w3.org/2000/svg">
<path d="M112.875 107.5H86V118.25H112.875V107.5Z" fill="#008749"/>
<path d="M112.875 129H86V139.75H112.875V129Z" fill="#008749"/>
<path d="M112.875 86H86V96.75H112.875V86Z" fill="#008749"/>
<path d="M86 0C38.7 0 0 14.5125 0 32.25V139.75C0 157.488 38.7 172 86 172C133.3 172 172 157.488 172 139.75V32.25C172 14.5125 133.3 0 86 0ZM123.625 155.875C123.625 159.1 121.475 161.25 118.25 161.25C115.025 161.25 112.875 159.1 112.875 155.875V150.5H86V155.875C86 159.1 83.85 161.25 80.625 161.25C77.4 161.25 75.25 159.1 75.25 155.875V69.875C75.25 66.65 77.4 64.5 80.625 64.5C83.85 64.5 86 66.65 86 69.875V75.25H112.875V69.875C112.875 66.65 115.025 64.5 118.25 64.5C121.475 64.5 123.625 66.65 123.625 69.875V155.875ZM86 53.75C37.0875 53.75 10.75 38.7 10.75 32.25C10.75 25.8 37.0875 10.75 86 10.75C134.913 10.75 161.25 25.8 161.25 32.25C161.25 38.7 134.913 53.75 86 53.75Z" fill="#008749"/>
</svg>
