<svg width="205" height="52" viewBox="0 0 205 52" fill="none" xmlns="http://www.w3.org/2000/svg">
<g clip-path="url(#clip0)">
<path fill-rule="evenodd" clip-rule="evenodd" d="M46.0856 49.4611C45.0156 52.1323 41.5008 52.7299 39.6082 50.5622L35.3882 45.7286L46.4158 18.4339H58.5133L46.0856 49.4611ZM26.8678 35.9697L33.9528 18.4339H11.5574L26.8678 35.9697ZM1.03786 6.38516L1.46841 6.87831H63.1419L63.7804 5.28408C64.794 2.75369 62.9306 0 60.2048 0H3.93943C0.632035 0 -1.13737 3.89375 1.03786 6.38516Z" fill="#86817E"/>
<path fill-rule="evenodd" clip-rule="evenodd" d="M46.0856 49.4611C45.0156 52.1323 41.5008 52.7299 39.6082 50.5622L35.3882 45.7286L46.4158 18.4339H58.5133L46.0856 49.4611ZM26.8678 35.9697L33.9528 18.4339H11.5574L26.8678 35.9697ZM1.03786 6.38516L1.46841 6.87831H63.1419L63.7804 5.28408C64.794 2.75369 62.9306 0 60.2048 0H3.93943C0.632035 0 -1.13737 3.89375 1.03786 6.38516Z" fill="url(#paint0_radial)"/>
<path d="M78.3469 8.90637C81.8485 8.90637 83.5994 9.53406 83.5994 10.7894C83.5994 11.3063 83.4049 11.7986 83.0156 12.2663C82.2989 13.1524 81.1728 13.7432 79.637 14.0386L81.6642 16.5985H75.2445L73.8314 14.3093H72.5721L71.5891 16.5985H65.753L69.1319 8.90637H78.3469ZM74.7528 12.414C75.4492 12.414 75.9714 12.3853 76.3194 12.3278C76.6881 12.2622 76.9338 12.0858 77.0568 11.7986C77.2001 11.5032 77.2717 11.3227 77.2717 11.2571C77.2717 11.093 77.108 10.9904 76.7803 10.9494C76.473 10.9002 75.9612 10.8755 75.2445 10.8755H74.0771L73.4014 12.414H74.7528ZM64.8316 16.5616L51.8076 16.0078H65.0773L64.8316 16.5616ZM65.8757 14.1863L52.852 13.6324H66.1217L65.8757 14.1863ZM66.8895 11.8232L53.8964 11.2694H67.1352L66.8895 11.8232ZM67.4118 10.6417L54.4183 10.0879H67.6574L67.4118 10.6417ZM65.3535 15.3678L52.3298 14.8139H65.5995L65.3535 15.3678ZM67.934 9.46021L54.9406 8.90637H68.1796L67.934 9.46021ZM66.3673 13.0047L53.3742 12.4509H66.613L66.3673 13.0047Z" fill="#008749"/>
<path d="M78.3469 8.90637C81.8485 8.90637 83.5994 9.53406 83.5994 10.7894C83.5994 11.3063 83.4049 11.7986 83.0156 12.2663C82.2989 13.1524 81.1728 13.7432 79.637 14.0386L81.6642 16.5985H75.2445L73.8314 14.3093H72.5721L71.5891 16.5985H65.753L69.1319 8.90637H78.3469ZM74.7528 12.414C75.4492 12.414 75.9714 12.3853 76.3194 12.3278C76.6881 12.2622 76.9338 12.0858 77.0568 11.7986C77.2001 11.5032 77.2717 11.3227 77.2717 11.2571C77.2717 11.093 77.108 10.9904 76.7803 10.9494C76.473 10.9002 75.9612 10.8755 75.2445 10.8755H74.0771L73.4014 12.414H74.7528ZM64.8316 16.5616L51.8076 16.0078H65.0773L64.8316 16.5616ZM65.8757 14.1863L52.852 13.6324H66.1217L65.8757 14.1863ZM66.8895 11.8232L53.8964 11.2694H67.1352L66.8895 11.8232ZM67.4118 10.6417L54.4183 10.0879H67.6574L67.4118 10.6417ZM65.3535 15.3678L52.3298 14.8139H65.5995L65.3535 15.3678ZM67.934 9.46021L54.9406 8.90637H68.1796L67.934 9.46021ZM66.3673 13.0047L53.3742 12.4509H66.613L66.3673 13.0047Z" fill="url(#paint1_radial)"/>
<path d="M95.945 16.5985H89.8018L97.8802 8.90637H106.911L108.262 16.5985H102.088L101.966 15.3801H97.1432L95.945 16.5985ZM101.505 13.4232V11.2694H101.198L99.0473 13.4232H101.505ZM88.8188 16.5493L76.2249 16.0078H89.4023L88.8188 16.5493ZM90.0783 15.3555L77.4844 14.8139H90.6619L90.0783 15.3555ZM91.3376 14.1739L78.7437 13.6324H91.8906L91.3376 14.1739ZM92.5663 12.9924L80.0032 12.4509H93.1499L92.5663 12.9924ZM93.8256 11.8109L81.2625 11.2694H94.3786L93.8256 11.8109ZM96.3136 9.43559L83.7814 8.90637H96.8667L96.3136 9.43559ZM95.0544 10.6171L82.5218 10.0879H95.6071L95.0544 10.6171ZM96.3136 9.43559L96.8667 8.90637H83.7814L96.3136 9.43559Z" fill="#008749"/>
<path d="M95.945 16.5985H89.8018L97.8802 8.90637H106.911L108.262 16.5985H102.088L101.966 15.3801H97.1432L95.945 16.5985ZM101.505 13.4232V11.2694H101.198L99.0473 13.4232H101.505ZM88.8188 16.5493L76.2249 16.0078H89.4023L88.8188 16.5493ZM90.0783 15.3555L77.4844 14.8139H90.6619L90.0783 15.3555ZM91.3376 14.1739L78.7437 13.6324H91.8906L91.3376 14.1739ZM92.5663 12.9924L80.0032 12.4509H93.1499L92.5663 12.9924ZM93.8256 11.8109L81.2625 11.2694H94.3786L93.8256 11.8109ZM96.3136 9.43559L83.7814 8.90637H96.8667L96.3136 9.43559ZM95.0544 10.6171L82.5218 10.0879H95.6071L95.0544 10.6171ZM96.3136 9.43559L96.8667 8.90637H83.7814L96.3136 9.43559Z" fill="url(#paint2_radial)"/>
<path d="M104.947 16.0078H117.879L117.971 16.5616L104.947 16.0078ZM104.762 14.8139H117.694L117.786 15.3678L104.762 14.8139ZM104.056 10.0879H116.988L117.08 10.6417L104.056 10.0879ZM104.24 11.2694H117.172L117.233 11.8232L104.24 11.2694ZM103.902 8.90637H116.834L116.895 9.46021L103.902 8.90637ZM104.425 12.4509H117.326L117.418 13.0047L104.425 12.4509ZM104.609 13.6324H117.51L117.602 14.1863L104.609 13.6324ZM124.237 8.90637V13.7924H124.513L129.152 8.90637H135.325L127.431 16.5985H118.892L117.756 8.90637H124.237Z" fill="#008749"/>
<path d="M104.947 16.0078H117.879L117.971 16.5616L104.947 16.0078ZM104.762 14.8139H117.694L117.786 15.3678L104.762 14.8139ZM104.056 10.0879H116.988L117.08 10.6417L104.056 10.0879ZM104.24 11.2694H117.172L117.233 11.8232L104.24 11.2694ZM103.902 8.90637H116.834L116.895 9.46021L103.902 8.90637ZM104.425 12.4509H117.326L117.418 13.0047L104.425 12.4509ZM104.609 13.6324H117.51L117.602 14.1863L104.609 13.6324ZM124.237 8.90637V13.7924H124.513L129.152 8.90637H135.325L127.431 16.5985H118.892L117.756 8.90637H124.237Z" fill="url(#paint3_radial)"/>
<path d="M152.987 13.694H147.15L146.751 14.6293H153.908L153.048 16.5985H140.055L143.434 8.90637H156.273L154.676 10.8755H148.379L147.949 11.9094H153.785L152.987 13.694ZM139.134 16.5616L126.11 16.0078H139.379L139.134 16.5616ZM140.178 14.1863L127.154 13.6324H140.424L140.178 14.1863ZM140.7 13.0047L127.676 12.4509H140.946L140.7 13.0047ZM141.222 11.8232L128.198 11.2694H141.468L141.222 11.8232ZM141.744 10.6417L128.72 10.0879H141.959L141.744 10.6417ZM139.655 15.3678L126.632 14.8139H139.901L139.655 15.3678ZM142.236 9.46021L129.243 8.90637H142.482L142.236 9.46021Z" fill="#008749"/>
<path d="M152.987 13.694H147.15L146.751 14.6293H153.908L153.048 16.5985H140.055L143.434 8.90637H156.273L154.676 10.8755H148.379L147.949 11.9094H153.785L152.987 13.694ZM139.134 16.5616L126.11 16.0078H139.379L139.134 16.5616ZM140.178 14.1863L127.154 13.6324H140.424L140.178 14.1863ZM140.7 13.0047L127.676 12.4509H140.946L140.7 13.0047ZM141.222 11.8232L128.198 11.2694H141.468L141.222 11.8232ZM141.744 10.6417L128.72 10.0879H141.959L141.744 10.6417ZM139.655 15.3678L126.632 14.8139H139.901L139.655 15.3678ZM142.236 9.46021L129.243 8.90637H142.482L142.236 9.46021Z" fill="url(#paint4_radial)"/>
<path d="M174.936 8.90637C178.438 8.90637 180.189 9.53406 180.189 10.7894C180.189 11.3063 179.994 11.7986 179.605 12.2663C178.888 13.1524 177.762 13.7432 176.226 14.0386L178.254 16.5985H171.834L170.421 14.3093H169.161L168.179 16.5985H162.343L165.721 8.90637H174.936ZM171.342 12.414C172.039 12.414 172.561 12.3853 172.909 12.3278C173.278 12.2622 173.523 12.0858 173.646 11.7986C173.789 11.5032 173.861 11.3227 173.861 11.2571C173.861 11.093 173.697 10.9904 173.37 10.9494C173.063 10.9002 172.551 10.8755 171.834 10.8755H170.667L169.991 12.414H171.342ZM161.421 16.5616L148.397 16.0078H161.667L161.421 16.5616ZM162.465 14.1863L149.441 13.6324H162.711L162.465 14.1863ZM163.479 11.8232L150.486 11.2694H163.725L163.479 11.8232ZM164.001 10.6417L151.008 10.0879H164.247L164.001 10.6417ZM161.943 15.3678L148.919 14.8139H162.189L161.943 15.3678ZM164.523 9.46021L151.53 8.90637H164.769L164.523 9.46021ZM162.957 13.0047L149.964 12.4509H163.203L162.957 13.0047Z" fill="#008749"/>
<path d="M174.936 8.90637C178.438 8.90637 180.189 9.53406 180.189 10.7894C180.189 11.3063 179.994 11.7986 179.605 12.2663C178.888 13.1524 177.762 13.7432 176.226 14.0386L178.254 16.5985H171.834L170.421 14.3093H169.161L168.179 16.5985H162.343L165.721 8.90637H174.936ZM171.342 12.414C172.039 12.414 172.561 12.3853 172.909 12.3278C173.278 12.2622 173.523 12.0858 173.646 11.7986C173.789 11.5032 173.861 11.3227 173.861 11.2571C173.861 11.093 173.697 10.9904 173.37 10.9494C173.063 10.9002 172.551 10.8755 171.834 10.8755H170.667L169.991 12.414H171.342ZM161.421 16.5616L148.397 16.0078H161.667L161.421 16.5616ZM162.465 14.1863L149.441 13.6324H162.711L162.465 14.1863ZM163.479 11.8232L150.486 11.2694H163.725L163.479 11.8232ZM164.001 10.6417L151.008 10.0879H164.247L164.001 10.6417ZM161.943 15.3678L148.919 14.8139H162.189L161.943 15.3678ZM164.523 9.46021L151.53 8.90637H164.769L164.523 9.46021ZM162.957 13.0047L149.964 12.4509H163.203L162.957 13.0047Z" fill="url(#paint5_radial)"/>
<path d="M188.418 11.8233L175.395 11.2694H188.634C188.531 11.4335 188.459 11.6181 188.418 11.8233ZM189.463 10.0879L189.002 10.6295L176.255 10.0879H189.463ZM188.418 12.4509C188.459 12.6725 188.541 12.8571 188.664 13.0048L175.671 12.4509H188.418ZM192.719 14.1863L176.47 13.6325H189.709C190.384 13.895 191.388 14.0796 192.719 14.1863ZM191.767 8.90642C191.296 9.02948 190.845 9.1977 190.415 9.41101L178.559 8.90642H191.767ZM175.948 14.814H187.435L186.975 15.3555L175.948 14.814ZM175.425 16.0078H186.453L185.992 16.5493L175.425 16.0078ZM188.756 14.4324C190.476 14.6212 192.043 14.7155 193.456 14.7155C194.89 14.7155 196.057 14.6909 196.958 14.6417L197.203 14.0263L194.654 13.9279C192.709 13.854 191.326 13.6776 190.507 13.3986C189.709 13.1197 189.309 12.7258 189.309 12.2171C189.309 11.9956 189.371 11.7494 189.494 11.4787C189.964 10.4284 190.824 9.70639 192.074 9.31257C193.323 8.91871 195.238 8.7218 197.818 8.7218C200.418 8.7218 202.712 8.82437 204.698 9.02948L203.101 10.9987C201.319 10.8756 199.886 10.8141 198.801 10.8141C197.736 10.8141 196.814 10.8346 196.036 10.8756L195.79 11.4787L197.849 11.5648C199.937 11.6551 201.422 11.8561 202.302 12.1679C203.183 12.4715 203.623 12.8817 203.623 13.3986C203.623 13.9238 203.347 14.4653 202.794 15.0232C202.487 15.3104 202.159 15.5524 201.811 15.7493C201.483 15.9381 201.053 16.1022 200.521 16.2416C200.009 16.3729 199.538 16.4755 199.108 16.5493C198.678 16.615 198.125 16.6642 197.449 16.697C196.507 16.7545 195.34 16.7832 193.948 16.7832C191.408 16.7832 189.104 16.6765 187.036 16.4632L188.756 14.4324Z" fill="#008749"/>
<path d="M188.418 11.8233L175.395 11.2694H188.634C188.531 11.4335 188.459 11.6181 188.418 11.8233ZM189.463 10.0879L189.002 10.6295L176.255 10.0879H189.463ZM188.418 12.4509C188.459 12.6725 188.541 12.8571 188.664 13.0048L175.671 12.4509H188.418ZM192.719 14.1863L176.47 13.6325H189.709C190.384 13.895 191.388 14.0796 192.719 14.1863ZM191.767 8.90642C191.296 9.02948 190.845 9.1977 190.415 9.41101L178.559 8.90642H191.767ZM175.948 14.814H187.435L186.975 15.3555L175.948 14.814ZM175.425 16.0078H186.453L185.992 16.5493L175.425 16.0078ZM188.756 14.4324C190.476 14.6212 192.043 14.7155 193.456 14.7155C194.89 14.7155 196.057 14.6909 196.958 14.6417L197.203 14.0263L194.654 13.9279C192.709 13.854 191.326 13.6776 190.507 13.3986C189.709 13.1197 189.309 12.7258 189.309 12.2171C189.309 11.9956 189.371 11.7494 189.494 11.4787C189.964 10.4284 190.824 9.70639 192.074 9.31257C193.323 8.91871 195.238 8.7218 197.818 8.7218C200.418 8.7218 202.712 8.82437 204.698 9.02948L203.101 10.9987C201.319 10.8756 199.886 10.8141 198.801 10.8141C197.736 10.8141 196.814 10.8346 196.036 10.8756L195.79 11.4787L197.849 11.5648C199.937 11.6551 201.422 11.8561 202.302 12.1679C203.183 12.4715 203.623 12.8817 203.623 13.3986C203.623 13.9238 203.347 14.4653 202.794 15.0232C202.487 15.3104 202.159 15.5524 201.811 15.7493C201.483 15.9381 201.053 16.1022 200.521 16.2416C200.009 16.3729 199.538 16.4755 199.108 16.5493C198.678 16.615 198.125 16.6642 197.449 16.697C196.507 16.7545 195.34 16.7832 193.948 16.7832C191.408 16.7832 189.104 16.6765 187.036 16.4632L188.756 14.4324Z" fill="url(#paint6_radial)"/>
<path d="M69.6393 22.1673C68.566 22.3563 67.4886 22.4508 66.4068 22.4508C65.3247 22.4508 64.542 22.3479 64.0583 22.1421C63.5831 21.9363 63.3457 21.6191 63.3457 21.1907C63.3457 21.0101 63.4073 20.7433 63.5303 20.3905C63.7944 19.6596 64.2605 19.1324 64.9291 18.809C65.5974 18.4856 66.7059 18.3239 68.2538 18.3239C68.588 18.3239 69.006 18.3407 69.5073 18.3743C70.0088 18.4079 70.3781 18.4457 70.6155 18.4877L69.89 19.4517C69.2302 19.3929 68.6233 19.3635 68.0691 19.3635C67.5238 19.3635 67.1323 19.3845 66.8949 19.4265C66.6574 19.4685 66.5166 19.5525 66.4728 19.6785L65.8263 21.4616H66.6574C66.9565 21.4616 67.1763 21.4469 67.3172 21.4175C67.4666 21.3839 67.5635 21.3104 67.6075 21.197L67.6732 21.0269H67.0402L67.3962 20.0629H70.4177L69.6393 22.1673ZM63.1611 20.359C63.1435 20.3926 63.1258 20.4388 63.1082 20.4976L57.9231 20.233H63.2007L63.1611 20.359ZM63.0158 20.8378C62.9894 20.9344 62.9762 21.0227 62.9762 21.1025L57.7778 20.8378H63.0158ZM63.5174 19.6281L63.3589 19.8864L58.2395 19.6281H63.5174ZM62.9894 21.4427C63.0246 21.5603 63.0554 21.6486 63.0818 21.7073L57.9492 21.4427H62.9894ZM64.0583 19.0232C63.935 19.1324 63.847 19.2165 63.7944 19.2753L58.8597 19.0232H64.0583ZM63.3853 22.0539C63.4998 22.1505 63.6315 22.2282 63.7812 22.287L59.2159 22.0539H63.3853ZM65.3115 18.4184C65.0565 18.494 64.8586 18.5633 64.7178 18.6263L60.6805 18.4184H65.3115Z" fill="#86817E"/>
<path d="M69.6393 22.1673C68.566 22.3563 67.4886 22.4508 66.4068 22.4508C65.3247 22.4508 64.542 22.3479 64.0583 22.1421C63.5831 21.9363 63.3457 21.6191 63.3457 21.1907C63.3457 21.0101 63.4073 20.7433 63.5303 20.3905C63.7944 19.6596 64.2605 19.1324 64.9291 18.809C65.5974 18.4856 66.7059 18.3239 68.2538 18.3239C68.588 18.3239 69.006 18.3407 69.5073 18.3743C70.0088 18.4079 70.3781 18.4457 70.6155 18.4877L69.89 19.4517C69.2302 19.3929 68.6233 19.3635 68.0691 19.3635C67.5238 19.3635 67.1323 19.3845 66.8949 19.4265C66.6574 19.4685 66.5166 19.5525 66.4728 19.6785L65.8263 21.4616H66.6574C66.9565 21.4616 67.1763 21.4469 67.3172 21.4175C67.4666 21.3839 67.5635 21.3104 67.6075 21.197L67.6732 21.0269H67.0402L67.3962 20.0629H70.4177L69.6393 22.1673ZM63.1611 20.359C63.1435 20.3926 63.1258 20.4388 63.1082 20.4976L57.9231 20.233H63.2007L63.1611 20.359ZM63.0158 20.8378C62.9894 20.9344 62.9762 21.0227 62.9762 21.1025L57.7778 20.8378H63.0158ZM63.5174 19.6281L63.3589 19.8864L58.2395 19.6281H63.5174ZM62.9894 21.4427C63.0246 21.5603 63.0554 21.6486 63.0818 21.7073L57.9492 21.4427H62.9894ZM64.0583 19.0232C63.935 19.1324 63.847 19.2165 63.7944 19.2753L58.8597 19.0232H64.0583ZM63.3853 22.0539C63.4998 22.1505 63.6315 22.2282 63.7812 22.287L59.2159 22.0539H63.3853ZM65.3115 18.4184C65.0565 18.494 64.8586 18.5633 64.7178 18.6263L60.6805 18.4184H65.3115Z" fill="url(#paint7_radial)"/>
<path d="M78.8434 18.4183C80.3475 18.4183 81.0998 18.7397 81.0998 19.3823C81.0998 19.647 81.0161 19.899 80.8491 20.1384C80.5412 20.5921 80.0573 20.8945 79.3978 21.0457L80.2686 22.3563H77.5109L76.904 21.1843H76.3631L75.9408 22.3563H73.434L74.8853 18.4183H78.8434ZM77.2999 20.214C77.599 20.214 77.8232 20.1993 77.9726 20.1699C78.1311 20.1363 78.2367 20.046 78.2893 19.899C78.3509 19.7478 78.3817 19.6554 78.3817 19.6218C78.3817 19.5378 78.3113 19.4853 78.1707 19.4642C78.0386 19.439 77.8188 19.4264 77.5109 19.4264H77.0096L76.7194 20.214H77.2999ZM73.0381 22.3374L67.4438 22.0539H73.1438L73.0381 22.3374ZM73.4869 21.1213L67.8926 20.8378H73.5922L73.4869 21.1213ZM73.9221 19.9116L68.3411 19.6281H74.0278L73.9221 19.9116ZM74.1463 19.3067L68.5653 19.0232H74.252L74.1463 19.3067ZM73.2623 21.7262L67.6681 21.4427H73.368L73.2623 21.7262ZM74.3708 18.7019L68.7898 18.4183H74.4762L74.3708 18.7019ZM73.6979 20.5165L68.1168 20.2329H73.8035L73.6979 20.5165Z" fill="#86817E"/>
<path d="M78.8434 18.4183C80.3475 18.4183 81.0998 18.7397 81.0998 19.3823C81.0998 19.647 81.0161 19.899 80.8491 20.1384C80.5412 20.5921 80.0573 20.8945 79.3978 21.0457L80.2686 22.3563H77.5109L76.904 21.1843H76.3631L75.9408 22.3563H73.434L74.8853 18.4183H78.8434ZM77.2999 20.214C77.599 20.214 77.8232 20.1993 77.9726 20.1699C78.1311 20.1363 78.2367 20.046 78.2893 19.899C78.3509 19.7478 78.3817 19.6554 78.3817 19.6218C78.3817 19.5378 78.3113 19.4853 78.1707 19.4642C78.0386 19.439 77.8188 19.4264 77.5109 19.4264H77.0096L76.7194 20.214H77.2999ZM73.0381 22.3374L67.4438 22.0539H73.1438L73.0381 22.3374ZM73.4869 21.1213L67.8926 20.8378H73.5922L73.4869 21.1213ZM73.9221 19.9116L68.3411 19.6281H74.0278L73.9221 19.9116ZM74.1463 19.3067L68.5653 19.0232H74.252L74.1463 19.3067ZM73.2623 21.7262L67.6681 21.4427H73.368L73.2623 21.7262ZM74.3708 18.7019L68.7898 18.4183H74.4762L74.3708 18.7019ZM73.6979 20.5165L68.1168 20.2329H73.8035L73.6979 20.5165Z" fill="url(#paint8_radial)"/>
<path d="M87.4974 21.3734C87.8405 21.3734 88.0956 21.3545 88.2629 21.3167C88.4299 21.2747 88.5399 21.1823 88.5927 21.0395L89.1997 19.4013H88.144C87.8097 19.4013 87.5591 19.4223 87.3921 19.4643C87.2248 19.5021 87.115 19.5924 87.0622 19.7352L86.4552 21.3734H87.4974ZM88.5795 18.3239C89.6966 18.3239 90.4925 18.4289 90.9677 18.6389C91.4426 18.8447 91.68 19.1639 91.68 19.5966C91.68 20.0293 91.535 20.4829 91.2447 20.9576C90.9633 21.428 90.5101 21.7956 89.8856 22.0602C89.2698 22.3206 88.3638 22.4508 87.1676 22.4508C85.9804 22.4508 85.1489 22.3479 84.674 22.1421C84.1991 21.9321 83.9614 21.6107 83.9614 21.1781C83.9614 20.9723 84.0231 20.7013 84.1463 20.3653C84.2693 20.0251 84.4322 19.7331 84.6344 19.4895C84.8366 19.2417 85.1093 19.0274 85.4524 18.8468C86.1121 18.4982 87.1546 18.3239 88.5795 18.3239ZM83.7636 20.359C83.746 20.3926 83.7284 20.4388 83.7108 20.4976L78.5256 20.233H83.8032L83.7636 20.359ZM83.6186 20.8378C83.5922 20.9344 83.579 21.0227 83.579 21.1025L78.3804 20.8378H83.6186ZM84.1199 19.6281L83.9614 19.8864L78.8423 19.6281H84.1199ZM83.5922 21.4427C83.6271 21.5603 83.658 21.6486 83.6844 21.7073L78.5521 21.4427H83.5922ZM84.6608 19.0232C84.5376 19.1324 84.4498 19.2165 84.397 19.2753L79.4625 19.0232H84.6608ZM83.9878 22.0539C84.1023 22.1505 84.2341 22.2282 84.3838 22.287L79.8185 22.0539H83.9878ZM85.9143 18.4184C85.6593 18.494 85.4612 18.5633 85.3206 18.6263L81.283 18.4184H85.9143Z" fill="#86817E"/>
<path d="M87.4974 21.3734C87.8405 21.3734 88.0956 21.3545 88.2629 21.3167C88.4299 21.2747 88.5399 21.1823 88.5927 21.0395L89.1997 19.4013H88.144C87.8097 19.4013 87.5591 19.4223 87.3921 19.4643C87.2248 19.5021 87.115 19.5924 87.0622 19.7352L86.4552 21.3734H87.4974ZM88.5795 18.3239C89.6966 18.3239 90.4925 18.4289 90.9677 18.6389C91.4426 18.8447 91.68 19.1639 91.68 19.5966C91.68 20.0293 91.535 20.4829 91.2447 20.9576C90.9633 21.428 90.5101 21.7956 89.8856 22.0602C89.2698 22.3206 88.3638 22.4508 87.1676 22.4508C85.9804 22.4508 85.1489 22.3479 84.674 22.1421C84.1991 21.9321 83.9614 21.6107 83.9614 21.1781C83.9614 20.9723 84.0231 20.7013 84.1463 20.3653C84.2693 20.0251 84.4322 19.7331 84.6344 19.4895C84.8366 19.2417 85.1093 19.0274 85.4524 18.8468C86.1121 18.4982 87.1546 18.3239 88.5795 18.3239ZM83.7636 20.359C83.746 20.3926 83.7284 20.4388 83.7108 20.4976L78.5256 20.233H83.8032L83.7636 20.359ZM83.6186 20.8378C83.5922 20.9344 83.579 21.0227 83.579 21.1025L78.3804 20.8378H83.6186ZM84.1199 19.6281L83.9614 19.8864L78.8423 19.6281H84.1199ZM83.5922 21.4427C83.6271 21.5603 83.658 21.6486 83.6844 21.7073L78.5521 21.4427H83.5922ZM84.6608 19.0232C84.5376 19.1324 84.4498 19.2165 84.397 19.2753L79.4625 19.0232H84.6608ZM83.9878 22.0539C84.1023 22.1505 84.2341 22.2282 84.3838 22.287L79.8185 22.0539H83.9878ZM85.9143 18.4184C85.6593 18.494 85.4612 18.5633 85.3206 18.6263L81.283 18.4184H85.9143Z" fill="url(#paint9_radial)"/>
<path d="M95.1293 19.9116L89.5351 19.6281H95.235L95.1293 19.9116ZM94.9051 20.5165L89.324 20.2329H95.0108L94.9051 20.5165ZM95.5781 18.7019L89.997 18.4183H95.6835L95.5781 18.7019ZM89.7725 19.0232H95.4592L95.3536 19.3067L89.7725 19.0232ZM94.7862 20.8378C94.751 20.9764 94.729 21.0709 94.7202 21.1213L89.1392 20.8378H94.7862ZM94.6941 21.4427C94.6941 21.5435 94.7073 21.638 94.7334 21.7262L89.1524 21.4427H94.6941ZM94.9183 22.0538C95.0325 22.1715 95.1734 22.266 95.3404 22.3374L89.7593 22.0538H94.9183ZM98.4015 21.3734C98.7094 21.3734 98.9292 21.3545 99.0612 21.3167C99.193 21.2747 99.2855 21.1823 99.3383 21.0394L100.315 18.4183H102.821L102.004 20.6299C101.871 20.9869 101.718 21.2747 101.542 21.4931C101.375 21.7115 101.137 21.8963 100.829 22.0475C100.521 22.1988 100.139 22.3038 99.6814 22.3626C99.2327 22.4214 98.6609 22.4508 97.9659 22.4508C96.9017 22.4508 96.1542 22.3752 95.7231 22.224C95.301 22.0686 95.0897 21.8039 95.0897 21.4301C95.0897 21.2243 95.1513 20.9575 95.2746 20.6299L96.0926 18.4183H98.5993L97.5043 21.3734H98.4015Z" fill="#86817E"/>
<path d="M95.1293 19.9116L89.5351 19.6281H95.235L95.1293 19.9116ZM94.9051 20.5165L89.324 20.2329H95.0108L94.9051 20.5165ZM95.5781 18.7019L89.997 18.4183H95.6835L95.5781 18.7019ZM89.7725 19.0232H95.4592L95.3536 19.3067L89.7725 19.0232ZM94.7862 20.8378C94.751 20.9764 94.729 21.0709 94.7202 21.1213L89.1392 20.8378H94.7862ZM94.6941 21.4427C94.6941 21.5435 94.7073 21.638 94.7334 21.7262L89.1524 21.4427H94.6941ZM94.9183 22.0538C95.0325 22.1715 95.1734 22.266 95.3404 22.3374L89.7593 22.0538H94.9183ZM98.4015 21.3734C98.7094 21.3734 98.9292 21.3545 99.0612 21.3167C99.193 21.2747 99.2855 21.1823 99.3383 21.0394L100.315 18.4183H102.821L102.004 20.6299C101.871 20.9869 101.718 21.2747 101.542 21.4931C101.375 21.7115 101.137 21.8963 100.829 22.0475C100.521 22.1988 100.139 22.3038 99.6814 22.3626C99.2327 22.4214 98.6609 22.4508 97.9659 22.4508C96.9017 22.4508 96.1542 22.3752 95.7231 22.224C95.301 22.0686 95.0897 21.8039 95.0897 21.4301C95.0897 21.2243 95.1513 20.9575 95.2746 20.6299L96.0926 18.4183H98.5993L97.5043 21.3734H98.4015Z" fill="url(#paint10_radial)"/>
<path d="M109.913 21.4049H108.277L107.933 22.3563H105.427L106.878 18.4183H110.836C112.332 18.4183 113.079 18.7502 113.079 19.4138C113.079 19.7289 112.987 20.0145 112.802 20.2707C112.618 20.5228 112.411 20.7244 112.182 20.8756C111.962 21.0227 111.654 21.1487 111.258 21.2537C110.871 21.3545 110.423 21.4049 109.913 21.4049ZM109.227 20.3968C109.526 20.3968 109.75 20.3821 109.9 20.3527C110.058 20.3191 110.159 20.2455 110.203 20.1321C110.317 19.8213 110.374 19.6512 110.374 19.6218C110.374 19.542 110.308 19.4895 110.177 19.4642C110.045 19.439 109.847 19.4264 109.583 19.4264H109.002L108.646 20.3968H109.227ZM105.031 22.3374L99.4365 22.0539H105.136L105.031 22.3374ZM105.48 21.1213L99.8853 20.8378H105.585L105.48 21.1213ZM105.915 19.9116L100.334 19.6281H106.02L105.915 19.9116ZM106.139 19.3067L100.558 19.0232H106.245L106.139 19.3067ZM105.255 21.7262L99.6608 21.4427H105.361L105.255 21.7262ZM106.364 18.7019L100.782 18.4183H106.469L106.364 18.7019ZM105.691 20.5165L100.109 20.2329H105.796L105.691 20.5165Z" fill="#86817E"/>
<path d="M109.913 21.4049H108.277L107.933 22.3563H105.427L106.878 18.4183H110.836C112.332 18.4183 113.079 18.7502 113.079 19.4138C113.079 19.7289 112.987 20.0145 112.802 20.2707C112.618 20.5228 112.411 20.7244 112.182 20.8756C111.962 21.0227 111.654 21.1487 111.258 21.2537C110.871 21.3545 110.423 21.4049 109.913 21.4049ZM109.227 20.3968C109.526 20.3968 109.75 20.3821 109.9 20.3527C110.058 20.3191 110.159 20.2455 110.203 20.1321C110.317 19.8213 110.374 19.6512 110.374 19.6218C110.374 19.542 110.308 19.4895 110.177 19.4642C110.045 19.439 109.847 19.4264 109.583 19.4264H109.002L108.646 20.3968H109.227ZM105.031 22.3374L99.4365 22.0539H105.136L105.031 22.3374ZM105.48 21.1213L99.8853 20.8378H105.585L105.48 21.1213ZM105.915 19.9116L100.334 19.6281H106.02L105.915 19.9116ZM106.139 19.3067L100.558 19.0232H106.245L106.139 19.3067ZM105.255 21.7262L99.6608 21.4427H105.361L105.255 21.7262ZM106.364 18.7019L100.782 18.4183H106.469L106.364 18.7019ZM105.691 20.5165L100.109 20.2329H105.796L105.691 20.5165Z" fill="url(#paint11_radial)"/>
<path fill-rule="evenodd" clip-rule="evenodd" d="M33.925 44.1463L45.0918 16.5079H59.3222L62.4081 8.8042H3.06812L9.79411 16.5079H36.7831L28.2449 37.6405L33.925 44.1463Z" fill="#008749"/>
<path fill-rule="evenodd" clip-rule="evenodd" d="M33.925 44.1463L45.0918 16.5079H59.3222L62.4081 8.8042H3.06812L9.79411 16.5079H36.7831L28.2449 37.6405L33.925 44.1463Z" fill="url(#paint12_radial)"/>
</g>
<defs>
<radialGradient id="paint0_radial" cx="0" cy="0" r="1" gradientUnits="userSpaceOnUse" gradientTransform="translate(28.6959 5.29451) rotate(58.0679) scale(48.9606 22.2014)">
<stop stop-color="white" stop-opacity="0.7"/>
<stop offset="1" stop-color="white" stop-opacity="0"/>
</radialGradient>
<radialGradient id="paint1_radial" cx="0" cy="0" r="1" gradientUnits="userSpaceOnUse" gradientTransform="translate(71.5343 0.550274) rotate(11.575) scale(125.448 9.46959)">
<stop stop-color="white" stop-opacity="0.54"/>
<stop offset="1" stop-color="white" stop-opacity="0"/>
</radialGradient>
<radialGradient id="paint2_radial" cx="0" cy="0" r="1" gradientUnits="userSpaceOnUse" gradientTransform="translate(71.5344 0.550275) rotate(11.575) scale(125.448 9.46959)">
<stop stop-color="white" stop-opacity="0.54"/>
<stop offset="1" stop-color="white" stop-opacity="0"/>
</radialGradient>
<radialGradient id="paint3_radial" cx="0" cy="0" r="1" gradientUnits="userSpaceOnUse" gradientTransform="translate(71.5344 0.550273) rotate(11.575) scale(125.448 9.46959)">
<stop stop-color="white" stop-opacity="0.54"/>
<stop offset="1" stop-color="white" stop-opacity="0"/>
</radialGradient>
<radialGradient id="paint4_radial" cx="0" cy="0" r="1" gradientUnits="userSpaceOnUse" gradientTransform="translate(71.5344 0.550274) rotate(11.575) scale(125.448 9.46959)">
<stop stop-color="white" stop-opacity="0.54"/>
<stop offset="1" stop-color="white" stop-opacity="0"/>
</radialGradient>
<radialGradient id="paint5_radial" cx="0" cy="0" r="1" gradientUnits="userSpaceOnUse" gradientTransform="translate(71.5344 0.550273) rotate(11.575) scale(125.448 9.46959)">
<stop stop-color="white" stop-opacity="0.54"/>
<stop offset="1" stop-color="white" stop-opacity="0"/>
</radialGradient>
<radialGradient id="paint6_radial" cx="0" cy="0" r="1" gradientUnits="userSpaceOnUse" gradientTransform="translate(71.5344 0.550317) rotate(11.575) scale(125.448 9.46958)">
<stop stop-color="white" stop-opacity="0.54"/>
<stop offset="1" stop-color="white" stop-opacity="0"/>
</radialGradient>
<radialGradient id="paint7_radial" cx="0" cy="0" r="1" gradientUnits="userSpaceOnUse" gradientTransform="translate(96.4056 14.4804) rotate(10.7929) scale(69.3969 4.44413)">
<stop stop-color="white" stop-opacity="0.7"/>
<stop offset="1" stop-color="white" stop-opacity="0"/>
</radialGradient>
<radialGradient id="paint8_radial" cx="0" cy="0" r="1" gradientUnits="userSpaceOnUse" gradientTransform="translate(96.4056 14.4803) rotate(10.7929) scale(69.3968 4.44413)">
<stop stop-color="white" stop-opacity="0.7"/>
<stop offset="1" stop-color="white" stop-opacity="0"/>
</radialGradient>
<radialGradient id="paint9_radial" cx="0" cy="0" r="1" gradientUnits="userSpaceOnUse" gradientTransform="translate(96.4054 14.4804) rotate(10.7929) scale(69.3969 4.44413)">
<stop stop-color="white" stop-opacity="0.7"/>
<stop offset="1" stop-color="white" stop-opacity="0"/>
</radialGradient>
<radialGradient id="paint10_radial" cx="0" cy="0" r="1" gradientUnits="userSpaceOnUse" gradientTransform="translate(96.4054 14.4803) rotate(10.7929) scale(69.3968 4.44413)">
<stop stop-color="white" stop-opacity="0.7"/>
<stop offset="1" stop-color="white" stop-opacity="0"/>
</radialGradient>
<radialGradient id="paint11_radial" cx="0" cy="0" r="1" gradientUnits="userSpaceOnUse" gradientTransform="translate(96.4054 14.4803) rotate(10.7929) scale(69.3968 4.44413)">
<stop stop-color="white" stop-opacity="0.7"/>
<stop offset="1" stop-color="white" stop-opacity="0"/>
</radialGradient>
<radialGradient id="paint12_radial" cx="0" cy="0" r="1" gradientUnits="userSpaceOnUse" gradientTransform="translate(27.3366 11.9548) rotate(37.6434) scale(47.0083 13.5294)">
<stop stop-color="white" stop-opacity="0.54"/>
<stop offset="1" stop-color="white" stop-opacity="0"/>
</radialGradient>
<clipPath id="clip0">
<rect width="204.698" height="52" fill="white"/>
</clipPath>
</defs>
</svg>
